<svg width="26" height="26" viewBox="0 0 26 26" fill="none" xmlns="http://www.w3.org/2000/svg">
<path d="M25 21.8729V25H1V21.8729C1 20.8879 1.7513 19.7786 3.16198 18.7493C4.48155 17.7866 6.23525 17.0046 7.98591 16.575C7.99395 16.5895 8.00242 16.6053 8.01146 16.6224C8.03087 16.6594 8.05 16.6975 8.07167 16.7407L8.07428 16.7459C8.09419 16.7855 8.11706 16.8312 8.14007 16.875L8.33856 17.252H8.76471H11.6333H11.6336C12.284 17.2519 12.6012 17.2519 12.9224 17.252C13.2362 17.2521 13.5538 17.2522 14.1895 17.252H14.1896H17.0583H17.4844L17.6829 16.875C17.7398 16.7669 17.83 16.6361 17.9165 16.5529C17.9169 16.5525 17.9173 16.5521 17.9177 16.5517C19.7002 16.9759 21.4942 17.7689 22.838 18.7493C24.2487 19.7786 25 20.8879 25 21.8729ZM7.90593 16.4504C7.90494 16.4494 7.90445 16.4489 7.90445 16.4489C7.90445 16.4488 7.90494 16.4493 7.90593 16.4504Z" stroke="#8A94A6" stroke-width="1.61759"/>
<path fill-rule="evenodd" clip-rule="evenodd" d="M7.353 22.1869C7.73305 22.1869 8.05888 21.8759 8.05888 21.4706C8.05888 21.0653 7.73305 20.7544 7.353 20.7544C6.97295 20.7544 6.64712 21.0653 6.64712 21.4706C6.64712 21.8759 6.97295 22.1869 7.353 22.1869ZM7.353 23.5883C8.52257 23.5883 9.47065 22.6402 9.47065 21.4706C9.47065 20.301 8.52257 19.353 7.353 19.353C6.18342 19.353 5.23535 20.301 5.23535 21.4706C5.23535 22.6402 6.18342 23.5883 7.353 23.5883Z" fill="#8A94A6"/>
<path d="M18.647 22.8824H17.2352V21.4706L17.9411 20.0588H20.7646L21.4705 21.4706V22.8824H20.0588" stroke="#8A94A6" stroke-width="1.61759" stroke-linejoin="round"/>
<path d="M19.3529 20.0588C19.7058 19.5882 20.0588 17.5882 19.7058 16.8823" stroke="#8A94A6" stroke-width="1.61759"/>
<path d="M7.14623 20.0588C6.79329 19.5882 6.44035 17.5882 6.79329 16.8823" stroke="#8A94A6" stroke-width="1.61759"/>
<path d="M19.3529 7.35294C19.3529 10.8631 16.5101 13.7059 12.9999 13.7059C9.48977 13.7059 6.64697 10.8631 6.64697 7.35294C6.64697 3.8428 9.48977 1 12.9999 1C16.5101 1 19.3529 3.8428 19.3529 7.35294Z" stroke="#8A94A6" stroke-width="1.61759"/>
</svg>
