<svg width="26" height="26" viewBox="0 0 26 26" fill="none" xmlns="http://www.w3.org/2000/svg">
<path d="M9.55873 23.5257V19.8456C9.55871 18.9096 10.3285 18.149 11.2823 18.1427H14.7759C15.7343 18.1427 16.5111 18.9051 16.5111 19.8456V19.8456V23.5371C16.5109 24.3318 17.1573 24.9814 17.9668 25H20.2959C22.6178 25 24.5 23.1528 24.5 20.8742V20.8742V10.4054C24.4876 9.50899 24.0587 8.66722 23.3354 8.11964L15.3699 1.82236C13.9744 0.72588 11.9907 0.72588 10.5952 1.82236L2.66456 8.13107C1.93852 8.67643 1.50894 9.5196 1.5 10.4168V20.8742C1.5 23.1528 3.38222 25 5.70405 25H8.03316C8.86285 25 9.53544 24.3399 9.53544 23.5257V23.5257" stroke="#92929D" stroke-width="2" stroke-linecap="round" stroke-linejoin="round"/>
</svg>
