<svg width="23" height="24" viewBox="0 0 23 24" fill="none" xmlns="http://www.w3.org/2000/svg">
<path fill-rule="evenodd" clip-rule="evenodd" d="M15.7068 13.1414L11.6257 15.4975L13.8248 19.3065L17.9059 16.9503C18.9577 16.3431 19.3181 14.9982 18.7108 13.9463C18.1036 12.8945 16.7586 12.5341 15.7068 13.1414ZM14.4532 20.3948L18.5342 18.0387C20.1871 17.0844 20.7534 14.9708 19.7991 13.318C18.8448 11.6651 16.7313 11.0988 15.0785 12.0531L10.9974 14.4093C10.9106 14.259 10.7185 14.2075 10.5683 14.2943L5.94309 16.9647C4.13994 18.0057 3.52218 20.3113 4.56318 22.1144C5.60424 23.9176 7.90985 24.5353 9.713 23.4943L14.3382 20.824C14.4884 20.7372 14.5399 20.5451 14.4532 20.3948ZM8.54866 16.7891L6.19618 18.1334C5.24974 18.6743 4.8294 19.7764 5.09021 20.7806C5.17749 21.1165 5.57094 21.2213 5.87222 21.0492C6.02289 20.9631 6.07127 20.7714 6.02006 20.6056C5.82736 19.9822 6.08176 19.2843 6.66377 18.9517L9.01626 17.6074C9.2422 17.4783 9.32074 17.1905 9.19162 16.9645C9.0625 16.7385 8.77461 16.66 8.54866 16.7891Z" fill="#8A94A6"/>
<path fill-rule="evenodd" clip-rule="evenodd" d="M10.6104 14.9955L8.69381 16.1021C9.10548 16.069 9.51866 16.2704 9.73713 16.6528C10.0384 17.18 9.85525 17.8517 9.32797 18.1529L6.97554 19.4972C6.65937 19.6779 6.51103 20.0663 6.62036 20.4201C6.73314 20.7851 6.65787 21.3239 6.18399 21.5947C5.88642 21.7647 5.53117 21.806 5.21079 21.7043C5.14167 21.6823 5.07425 21.6536 5.00991 21.6182C5.0402 21.6795 5.07262 21.7402 5.1073 21.8003C5.97488 23.3029 7.89622 23.8177 9.39884 22.9502L13.752 20.4369L10.6104 14.9955ZM11.6257 15.4975L15.7068 13.1414C16.7586 12.5341 18.1036 12.8945 18.7108 13.9463C19.3181 14.9982 18.9577 16.3431 17.9059 16.9503L13.8248 19.3065L11.6257 15.4975ZM14.4532 20.3948L18.5342 18.0387C20.1871 17.0844 20.7534 14.9708 19.7991 13.318C18.8448 11.6651 16.7313 11.0988 15.0785 12.0531L10.9974 14.4093C10.9106 14.2591 10.7185 14.2075 10.5683 14.2943L5.94309 16.9647C4.13994 18.0057 3.52218 20.3113 4.56318 22.1144C5.60424 23.9176 7.90985 24.5353 9.713 23.4943L14.3382 20.824C14.4884 20.7372 14.5399 20.5451 14.4532 20.3948ZM6.19618 18.1334L8.54866 16.7891C8.77461 16.66 9.0625 16.7385 9.19162 16.9645C9.32074 17.1905 9.2422 17.4783 9.01626 17.6074L6.66377 18.9517C6.08176 19.2843 5.82736 19.9822 6.02006 20.6056C6.07127 20.7714 6.02289 20.9631 5.87222 21.0492C5.57094 21.2213 5.17749 21.1165 5.09021 20.7806C4.8294 19.7764 5.24974 18.6743 6.19618 18.1334Z" fill="#8A94A6"/>
<path d="M20.7556 7.9885C20.8864 8.11931 21.1023 8.10958 21.2104 7.95941C22.625 5.99503 22.4487 3.23942 20.6816 1.47224C18.9144 -0.294939 16.1588 -0.471213 14.1944 0.943407C14.0442 1.05151 14.0345 1.26741 14.1653 1.39821L20.7556 7.9885Z" fill="#8A94A6"/>
<path d="M13.4989 2.06465C13.3681 1.93384 13.1522 1.94359 13.0441 2.09371C11.6295 4.05806 11.8058 6.81367 13.573 8.58088C15.3401 10.348 18.0958 10.5243 20.0601 9.10973C20.2102 9.0016 20.22 8.78571 20.0892 8.6549L13.4989 2.06465Z" fill="#8A94A6"/>
<path d="M4.31947 2.80313C4.84901 1.91325 6.16716 2.00984 6.56137 2.9674L9.64396 10.4559C9.99959 11.3197 9.32176 12.2557 8.39015 12.1875L1.16632 11.6582C0.234659 11.5899 -0.299456 10.5651 0.178254 9.76232L4.31947 2.80313Z" fill="#8A94A6"/>
</svg>
