<svg width="18" height="20" viewBox="0 0 18 20" fill="none" xmlns="http://www.w3.org/2000/svg">
<path d="M17.4183 10.3546L17.4188 10.3554C17.5551 10.5686 17.4681 10.8586 17.2302 10.9619C17.2297 10.9622 17.2291 10.9624 17.2286 10.9626L15.8066 11.5589L15.5 11.6875V12.02V15C15.5 15.8289 14.8289 16.5 14 16.5H12H11.5V17V19.5H3.5V17.238C3.5 15.9807 3.30327 15.0508 2.99525 14.2836C2.6984 13.5442 2.30486 12.9762 1.94173 12.4521C1.93148 12.4373 1.92125 12.4226 1.91106 12.4078C1.53575 11.8659 1.19248 11.3615 0.934903 10.6975C0.679139 10.0382 0.5 9.19839 0.5 8C0.5 3.85814 3.85814 0.5 8 0.5C11.8632 0.5 15.0423 3.41827 15.452 7.17125L15.4646 7.28721L15.5273 7.3856L17.4183 10.3546ZM10.5 18V15.5H14H14.5V15V11.027L15.4156 10.6414L15.417 10.6408L15.6576 10.5404L16.2062 10.3115L15.8866 9.81022L14.6836 7.92322L14.6833 7.92266L14.4963 7.63021L14.4581 7.28177C14.458 7.28168 14.458 7.28158 14.458 7.28149C14.0981 3.98392 11.317 1.5 8 1.5C4.41486 1.5 1.5 4.41486 1.5 8C1.5 8.9953 1.6279 9.71148 1.86186 10.3194C2.09026 10.913 2.41117 11.3767 2.74087 11.8532L2.75283 11.8705L2.75352 11.8715C3.16347 12.4609 3.59217 13.0816 3.92534 13.9135C4.25672 14.7409 4.5 15.7957 4.5 17.238V18V18.5H5H10H10.5V18Z" fill="#8A94A6" stroke="#8A94A6"/>
</svg>
