<svg width="50" height="50" viewBox="0 0 50 50" fill="none" xmlns="http://www.w3.org/2000/svg">
<path d="M48.9609 0H47.5753C47.0013 0 46.5362 0.361073 46.5362 0.806446C46.5362 1.25182 47.0013 1.61289 47.5753 1.61289H47.9217V48.3868H47.5753C47.0013 48.3868 46.5362 48.7479 46.5362 49.1932C46.5362 49.6386 47.0013 49.9997 47.5753 49.9997H48.9609C49.5349 49.9997 50 49.6386 50 49.1932V0.806446C50 0.361073 49.5347 0 48.9609 0Z" fill="#03A9F5"/>
<path d="M36.4912 15.0537H7.96688C7.39286 15.0537 6.92773 15.4148 6.92773 15.8602C6.92773 16.3055 7.39286 16.6666 7.96688 16.6666H36.4911C37.0651 16.6666 37.5302 16.3055 37.5302 15.8602C37.5302 15.4148 37.0651 15.0537 36.4912 15.0537Z" fill="#03A9F5"/>
<path d="M36.4912 27.9568H7.96688C7.39286 27.9568 6.92773 28.3179 6.92773 28.7632C6.92773 29.2086 7.39286 29.5697 7.96688 29.5697H36.4911C37.0651 29.5697 37.5302 29.2086 37.5302 28.7632C37.5302 28.3179 37.0651 27.9568 36.4912 27.9568Z" fill="#03A9F5"/>
<path d="M36.4912 32.2578H25.0001C24.4261 32.2578 23.9609 32.6189 23.9609 33.0643C23.9609 33.5096 24.4261 33.8707 25.0001 33.8707H36.4912C37.0652 33.8707 37.5304 33.5096 37.5304 33.0643C37.5304 32.6189 37.0651 32.2578 36.4912 32.2578Z" fill="#03A9F5"/>
<path d="M43.4188 0H10.7378C10.703 0 10.6684 0.00139784 10.634 0.004086C10.6085 0.00612899 10.5835 0.0094623 10.5585 0.0129031C10.5502 0.0140859 10.5416 0.0146236 10.5333 0.0159139C10.5035 0.0205375 10.4744 0.0264514 10.4458 0.0330105C10.4423 0.0338708 10.4385 0.0343009 10.4351 0.0351611C10.4057 0.0420427 10.377 0.0503223 10.3488 0.0591394C10.3457 0.0601071 10.3427 0.0607523 10.3396 0.06172C10.3126 0.0704297 10.2866 0.0802145 10.2608 0.0906446C10.2565 0.092365 10.2519 0.0937628 10.2478 0.0954833C10.2238 0.105483 10.2008 0.116558 10.1779 0.127849C10.1721 0.130752 10.166 0.133117 10.1603 0.136128C10.139 0.147203 10.1188 0.159354 10.0985 0.171612C10.0919 0.175698 10.085 0.179139 10.0784 0.183332C10.0545 0.198601 10.0316 0.214837 10.0094 0.231826C10.0074 0.233439 10.0052 0.23473 10.0031 0.236343L0.3044 7.76318C0.301906 7.76511 0.299828 7.76737 0.297334 7.7693C0.276135 7.78608 0.25563 7.80339 0.236371 7.82156C0.230274 7.82737 0.225009 7.83361 0.219052 7.83952C0.204088 7.85436 0.189263 7.8693 0.175685 7.885C0.171113 7.89027 0.167371 7.89586 0.162938 7.90124C0.149082 7.91812 0.135366 7.93511 0.123173 7.95285C0.120402 7.95683 0.118324 7.96092 0.115691 7.96489C0.102806 7.98436 0.090475 8.00393 0.0795293 8.02425C0.0780052 8.02705 0.0768965 8.03006 0.0753724 8.03296C0.0642882 8.05446 0.053897 8.07619 0.0451681 8.09855C0.0440597 8.10135 0.043367 8.10425 0.0422586 8.10715C0.0338069 8.12941 0.0261863 8.15188 0.0203671 8.17489C0.0187045 8.18124 0.0180117 8.18769 0.0166262 8.19403C0.0121925 8.2136 0.00775922 8.23306 0.00526527 8.25307C0.00180146 8.27973 0 8.30661 0 8.3336V49.1936C0 49.6389 0.465121 50 1.03914 50H43.4186C43.9926 50 44.4578 49.6389 44.4578 49.1936V0.806446C44.4579 0.361073 43.9926 0 43.4188 0ZM9.69868 2.75332V7.52683H3.54791L9.69868 2.75332ZM42.3796 48.3868H2.07829V9.13973H10.7378C11.3118 9.13973 11.777 8.77865 11.777 8.33328V1.61289H42.3795V48.3868H42.3796Z" fill="#03A9F5"/>
<path d="M14.8946 9.13975H36.4912C37.0652 9.13975 37.5303 8.77868 37.5303 8.3333C37.5303 7.88793 37.0652 7.52686 36.4912 7.52686H14.8946C14.3206 7.52686 13.8555 7.88793 13.8555 8.3333C13.8555 8.77868 14.3207 9.13975 14.8946 9.13975Z" fill="#03A9F5"/>
<path d="M36.4912 19.3547H25.0001C24.4261 19.3547 23.9609 19.7158 23.9609 20.1612C23.9609 20.6066 24.4261 20.9676 25.0001 20.9676H36.4912C37.0652 20.9676 37.5304 20.6066 37.5304 20.1612C37.5304 19.7158 37.0651 19.3547 36.4912 19.3547Z" fill="#03A9F5"/>
<path d="M36.4912 23.6558H25.0001C24.4261 23.6558 23.9609 24.0168 23.9609 24.4622C23.9609 24.9076 24.4261 25.2687 25.0001 25.2687H36.4912C37.0652 25.2687 37.5304 24.9076 37.5304 24.4622C37.5304 24.0168 37.0651 23.6558 36.4912 23.6558Z" fill="#03A9F5"/>
<path d="M19.458 33.8707C20.032 33.8707 20.4972 33.5096 20.4972 33.0643C20.4972 32.6189 20.032 32.2578 19.458 32.2578H7.96688C7.39286 32.2578 6.92773 32.6189 6.92773 33.0643V41.6664C6.92773 42.1117 7.39286 42.4728 7.96688 42.4728H19.458C20.032 42.4728 20.4972 42.1117 20.4972 41.6664V36.29C20.4972 35.8447 20.032 35.4836 19.458 35.4836C18.884 35.4836 18.4189 35.8447 18.4189 36.29V40.8599H9.00602V33.8707H19.458Z" fill="#03A9F5"/>
<path d="M7.96688 25.2687H19.458C20.032 25.2687 20.4972 24.9076 20.4972 24.4622C20.4972 24.0168 20.032 23.6558 19.458 23.6558H7.96688C7.39286 23.6558 6.92773 24.0168 6.92773 24.4622C6.92773 24.9076 7.39299 25.2687 7.96688 25.2687Z" fill="#03A9F5"/>
<path d="M29.5636 40.8599H25.0001C24.4261 40.8599 23.9609 41.2209 23.9609 41.6663C23.9609 42.1117 24.4261 42.4728 25.0001 42.4728H29.5636C30.1376 42.4728 30.6027 42.1117 30.6027 41.6663C30.6027 41.2209 30.1375 40.8599 29.5636 40.8599Z" fill="#03A9F5"/>
<path d="M36.4912 36.5588H25.0001C24.4261 36.5588 23.9609 36.9199 23.9609 37.3653C23.9609 37.8107 24.4261 38.1717 25.0001 38.1717H36.4912C37.0652 38.1717 37.5304 37.8107 37.5304 37.3653C37.5304 36.9199 37.0651 36.5588 36.4912 36.5588Z" fill="#03A9F5"/>
<path d="M7.96688 20.9676H19.458C20.032 20.9676 20.4972 20.6066 20.4972 20.1612C20.4972 19.7158 20.032 19.3547 19.458 19.3547H7.96688C7.39286 19.3547 6.92773 19.7158 6.92773 20.1612C6.92773 20.6066 7.39299 20.9676 7.96688 20.9676Z" fill="#03A9F5"/>
</svg>
