<svg width="50" height="60" viewBox="0 0 50 60" fill="none" xmlns="http://www.w3.org/2000/svg">
<path d="M4.03282 60H45.9678C48.1949 60 50 58.2371 50 56.0621V29.4902C50 27.3152 48.1949 25.5522 45.9678 25.5522H39.9446V33.3852C42.3173 34.0775 44.0523 36.2255 44.0523 38.7647V43.044H40.7677V38.7647C40.7677 37.4366 39.6613 36.3569 38.3021 36.3569C36.943 36.3569 35.8366 37.4374 35.8366 38.7647V43.044H32.552V38.7647C32.552 36.2254 34.2877 34.0774 36.6599 33.3852V25.746C33.6629 28.6471 29.5426 30.4422 24.9999 30.4422C20.6242 30.4422 16.6418 28.7742 13.6765 26.0584V34.6106C15.8174 35.2887 17.3704 37.2532 17.3704 39.5667C17.3704 42.4403 14.9766 44.7781 12.0342 44.7781C9.09172 44.7781 6.6979 42.4403 6.6979 39.5667C6.6979 37.2525 8.25091 35.2886 10.3918 34.6106V25.5522H4.03218C1.80516 25.5522 0 27.3152 0 29.4902V56.0621C0.000644049 58.237 1.80591 60 4.03282 60Z" fill="#03A9F5"/>
<path d="M14.9438 24.5895C15.3091 24.9288 15.692 25.2504 16.0921 25.5519C18.5575 27.4092 21.6451 28.5172 25.0001 28.5172C28.355 28.5172 31.4426 27.4099 33.9081 25.5519C34.3082 25.2504 34.6912 24.9288 35.0563 24.5895C35.3861 24.2829 35.7015 23.9621 36.0011 23.6271C38.2405 21.1212 39.6003 17.846 39.6003 14.2583C39.6003 6.38364 33.0639 0 25.0008 0C16.9376 0 10.4012 6.38364 10.4012 14.2583C10.4012 17.846 11.761 21.1211 14.0006 23.6271C14.2988 23.9627 14.6134 24.2835 14.9438 24.5895Z" fill="#03A9F5"/>
<path d="M9.98242 39.5674C9.98242 40.6721 10.9028 41.5709 12.034 41.5709C13.1653 41.5709 14.0857 40.6721 14.0857 39.5674C14.0857 38.9515 13.794 38.4068 13.3447 38.0391C12.988 37.7473 12.5347 37.5637 12.0341 37.5637C11.5336 37.5637 11.0797 37.7465 10.7236 38.0391C10.2741 38.4067 9.98242 38.9515 9.98242 39.5674Z" fill="#03A9F5"/>
</svg>
