<svg width="50" height="50" viewBox="0 0 50 50" fill="none" xmlns="http://www.w3.org/2000/svg">
<g clip-path="url(#clip0_245_32484)">
<path d="M41.6667 12.5001H33.3333V8.33342C33.3333 6.04175 31.4583 4.16675 29.1667 4.16675H20.8333C18.5417 4.16675 16.6667 6.04175 16.6667 8.33342V12.5001H8.33334C6.04167 12.5001 4.16667 14.3751 4.16667 16.6667V41.6668C4.16667 43.9584 6.04167 45.8334 8.33334 45.8334H41.6667C43.9583 45.8334 45.8333 43.9584 45.8333 41.6668V16.6667C45.8333 14.3751 43.9583 12.5001 41.6667 12.5001ZM20.8333 8.33342H29.1667V12.5001H20.8333V8.33342ZM41.6667 41.6668H8.33334V16.6667H41.6667V41.6668Z" fill="#03A9F5"/>
<path d="M27.0833 20.8335H22.9167V27.0835H16.6667V31.2502H22.9167V37.5002H27.0833V31.2502H33.3333V27.0835H27.0833V20.8335Z" fill="#03A9F5"/>
</g>
<defs>
<clipPath id="clip0_245_32484">
<path d="M0 8C0 3.58172 3.58172 0 8 0H42C46.4183 0 50 3.58172 50 8V42C50 46.4183 46.4183 50 42 50H8C3.58172 50 0 46.4183 0 42V8Z" fill="white"/>
</clipPath>
</defs>
</svg>
