<svg width="34" height="55" viewBox="0 0 34 55" fill="none" xmlns="http://www.w3.org/2000/svg">
<path d="M20.04 23.0551V24.0508C20.04 29.9425 20.0332 35.8396 20.0604 41.7368C20.0604 42.3089 19.8567 42.4409 19.1843 42.4299C17.0248 42.3969 14.8721 42.4134 12.7126 42.4244C12.4613 42.4244 12.0946 42.3089 12.0675 42.694C12.0403 43.1121 12.4342 43.024 12.7194 43.024L19.3473 43.0295C19.5646 43.0295 19.9178 42.9415 19.9653 43.1506C20.0332 43.4421 19.6325 43.3981 19.4084 43.4476L12.733 44.9219C12.5836 44.9549 12.4274 44.9714 12.2848 45.0209C11.9996 45.1145 12.0335 45.3235 12.081 45.505C12.1354 45.7471 12.3934 45.6481 12.5157 45.5985C13.738 45.098 14.8178 45.5215 15.9247 45.8901C17.1199 46.2917 18.3287 46.6713 19.5443 47.0343C19.9246 47.1499 20.0943 47.3149 20.0332 47.6394C19.9653 48.019 19.5986 47.865 19.3609 47.8705C17.1539 47.8815 14.9468 47.876 12.733 47.8815C12.4613 47.8815 12.0743 47.7605 12.0539 48.1896C12.0335 48.6241 12.4274 48.5086 12.7058 48.5086C13.5818 48.5196 14.4579 48.5141 15.3882 48.6296C14.4375 49.0752 13.5003 49.5318 12.536 49.9554C12.081 50.1534 11.9384 50.39 12.1693 50.8466C13.3034 50.324 14.4782 49.8674 15.524 49.2678C16.7532 48.5636 18.0706 48.4206 19.4967 48.4976C19.8906 48.5196 20.0264 48.5911 20.0468 48.9267C20.1283 50.423 20.1419 50.434 18.3626 50.7146C16.5291 51.0006 14.6956 51.2647 12.8552 51.5397C12.4342 51.6057 12.0539 51.6222 11.9724 52.1283C11.7008 53.8722 9.89437 55.0934 7.8503 54.9944C5.62288 54.8789 4.01343 53.5146 4.00664 51.6662C3.98627 48.107 4.00664 44.5478 4.00664 40.9941C4.00664 40.0865 3.99985 39.1843 4.01343 38.2766C4.02022 37.9961 3.93194 37.897 3.55844 37.831C1.07976 37.3799 0 36.2247 0 34.1563C0.00679092 29.2494 0 24.3479 0 19.4409C0 18.9128 -6.10948e-07 18.3847 0.176563 17.8731C0.658719 16.4868 2.17989 15.5407 3.98627 15.5242C6.29518 15.5077 8.61089 15.5352 10.9266 15.5022C11.5446 15.4967 11.6396 15.6727 11.6328 16.1183C11.6125 21.9714 11.6193 27.8246 11.6261 33.6777C11.6261 33.8648 11.6261 34.0573 11.6328 34.2443C11.6396 34.4369 11.7619 34.5744 12.0063 34.5744C12.244 34.5744 12.3798 34.4369 12.4002 34.2498C12.4206 34.0628 12.4138 33.8703 12.4138 33.6832C12.4138 27.8521 12.4274 22.0209 12.3934 16.1898C12.3934 15.6122 12.5972 15.5022 13.2559 15.5132C15.4629 15.5462 17.67 15.5352 19.8838 15.5187C20.95 15.5132 21.86 15.8047 22.6681 16.3438C25.0789 17.9446 27.4829 19.551 29.914 21.1353C31.0481 21.8724 31.6185 22.8076 31.5846 23.9793C31.5846 24.1278 31.5778 24.2764 31.5778 24.4194C31.5846 24.8595 31.408 25.3876 31.6457 25.7232C31.9241 26.1137 32.6372 25.8277 33.1533 25.8827C33.649 25.9322 33.9478 26.1192 33.9478 26.5153C33.9546 28.7873 34.0972 31.0647 33.8799 33.3312C33.778 34.4314 33.0378 35.3996 32.2637 36.3017C31.2586 37.479 30.2196 38.6342 29.1738 39.7894C28.6169 40.4055 28.3725 41.0547 28.3793 41.8413C28.42 45.8406 28.3928 49.8399 28.3928 53.8392C28.3928 54.0262 28.4064 54.2187 28.3657 54.4058C28.2842 54.7908 27.9854 55.0164 27.5032 54.9834C27.0618 54.9559 26.7902 54.7248 26.7698 54.3673C26.7426 53.9877 26.7562 53.6081 26.7562 53.2285C26.7562 49.4383 26.7359 45.6481 26.7834 41.8578C26.7902 41.0712 26.5389 40.422 25.9821 39.8059C24.9566 38.6672 23.9244 37.534 22.9397 36.3677C22.1452 35.4271 21.4661 34.4369 21.242 33.2816C21.1945 33.0341 21.1537 32.781 21.1469 32.528C21.1401 30.6356 21.1401 28.7377 21.1469 26.8454C21.1469 26.0587 21.3778 25.8772 22.3285 25.8717C22.4847 25.8717 22.6477 25.8882 22.7971 25.8662C23.0484 25.8222 23.4083 26.0202 23.5305 25.6902C23.6256 25.4206 23.4626 25.2171 23.1842 25.0465C22.1995 24.4359 21.208 23.7923 20.04 23.0551ZM27.5915 39.3548C28.7867 37.9411 30.0974 36.6923 31.1567 35.295C31.7408 34.5194 32.3248 33.7162 32.3587 32.7975C32.4266 31.0537 32.3791 29.3044 32.3859 27.5605C32.3859 27.3075 32.3112 27.1699 31.9513 27.1809C31.6049 27.1864 31.5914 27.357 31.5914 27.5605V28.5727C31.5914 29.6674 31.6185 30.7621 31.5846 31.8514C31.5235 33.5512 29.7578 34.932 27.6458 34.976C25.6154 35.0145 23.7682 33.7327 23.646 32.0714C23.5373 30.6246 23.5984 29.1723 23.5781 27.72C23.5781 27.478 23.6664 27.1754 23.157 27.1974C22.6817 27.2195 22.8379 27.522 22.8379 27.72C22.8243 29.3594 22.8379 31.0042 22.8311 32.638C22.8311 33.1771 23.0076 33.6777 23.2793 34.1563C24.3658 36.0652 26.1247 37.5945 27.5915 39.3548ZM12.0335 0.000124445C16.468 0.0221288 20.074 2.9597 20.0332 6.5299C19.9993 10.0781 16.3729 12.9882 12.0063 12.9827C7.53792 12.9772 3.97948 10.0121 4.01343 6.32086C4.04739 2.87719 7.72807 -0.0218799 12.0335 0.000124445ZM15.1845 54.8789C16.1624 53.7511 17.0927 52.6234 18.1114 51.5507C18.512 51.1271 19.2455 51.2317 19.8431 51.1711C20.0468 51.1491 20.0128 51.3362 20.0332 51.4572C20.3524 53.5586 17.7718 55.418 15.1845 54.8789ZM17.1335 51.5452C16.2099 52.6179 15.3882 53.5531 14.5801 54.4993C14.3968 54.7138 14.227 54.6753 13.9961 54.5653C13.0793 54.1307 12.5089 53.4871 12.1625 52.6839C12.0199 52.3649 12.2169 52.2714 12.5428 52.2218C14.0165 52.0073 15.4833 51.7873 17.1335 51.5452ZM15.2456 45.0099C16.8347 44.6634 18.2268 44.3663 19.619 44.0472C19.9517 43.9702 20.04 44.0637 20.0332 44.3113C20.0264 44.9384 20.0332 45.571 20.0332 46.1982C20.0332 46.4182 19.9449 46.5062 19.6597 46.4182C18.2608 45.9671 16.8483 45.516 15.2456 45.0099Z" fill="#558EFF"/>
</svg>
